# xmcd CD database file
#
# Track frame offsets:
#	150
#	13841
#	27970
#	42140
#	59912
#	73531
#	84943
#	100862
#	119420
#	130658
#	151491
#	171803
#
# Disc length: 2447 seconds
#
# Revision: 0
# Processed by: cddbd v1.5.2PL0 Copyright (c) Steve Scherf et al.
# Submitted via: CDex 1.75
#
DISCID=9b098d0c
DTITLE=Various Artist - Christmas - My Holiday Collection - Kenny G
DYEAR=1900
DGENRE=Jazz
TTITLE0=White Christmas
TTITLE1=The First Noel
TTITLE2=Do You Here What I Here
TTITLE3=Have Yourself A Merry Little Christmas
TTITLE4=Deck The Halls
TTITLE5=Miracles
TTITLE6=I'll Be Home For Christmas
TTITLE7=We Three Kings/Carol Of The Bells
TTITLE8=Joy To The World
TTITLE9=Hark The Herald/Oh Come All Ye Faithful
TTITLE10=Ave Maria
TTITLE11=Away In A Manger
EXTD=
EXTT0=
EXTT1=
EXTT2=
EXTT3=
EXTT4=
EXTT5=
EXTT6=
EXTT7=
EXTT8=
EXTT9=
EXTT10=
EXTT11=
PLAYORDER=
